<svg xmlns="http://www.w3.org/2000/svg" viewBox="0 0 140 60">
  <path d="M99.8 41.5l.8-2.7c1.2-4.1-.1-7.9-3.4-10-1.5-1-3.3-1.5-5.2-1.6L40.8 27c-.3 0-.5-.2-.6-.4-.1-.3 0-.5.3-.7.2-.1.4-.2.6-.2l51.5-.2c5-.3 10.4-4.3 12.2-9.1l2.3-6.2c.1-.2.1-.4.1-.6C104.4 4.2 99.5 0 93.5 0 88 0 83.3 3.4 81.6 8.4 79.4 6.2 76.3 5 73 5c-6.2 0-11.3 4.8-11.7 10.8C55 12.6 48 16.5 45.9 22.8c-.5 1.6-.7 3.2-.6 4.8-8.3.3-15 7.1-15 15.4 0 .7.1 1.5.2 2.3.1.3.3.5.6.5h67.5c.3 0 .5-.1.7-.4l.5-3.9z" fill="#F6821F"/>
  <path d="M107.4 15.3c-.4 0-.8 0-1.2.1-.2 0-.4.2-.5.4l-1.6 5.6c-1.2 4.1.1 7.9 3.4 10 1.5 1 3.3 1.5 5.2 1.6l7.9.1c.3 0 .5.2.6.4.1.3 0 .5-.3.7-.2.1-.4.2-.6.2l-8.1.2c-5 .3-10.4 4.3-12.2 9.1l-.6 1.8c-.1.3.1.6.4.6h30.9c.3 0 .5-.2.6-.4.6-2 .9-4.2.9-6.4 0-13.2-10.8-24-24-24" fill="#FBAD41"/>
</svg>